<?xml version="1.0" encoding="UTF-8" standalone="no"?><!DOCTYPE svg PUBLIC "-//W3C//DTD SVG 1.1//EN" "http://www.w3.org/Graphics/SVG/1.1/DTD/svg11.dtd"><svg width="100%" height="100%" viewBox="0 0 2863 1602" version="1.1" xmlns="http://www.w3.org/2000/svg" xmlns:xlink="http://www.w3.org/1999/xlink" xml:space="preserve" xmlns:serif="http://www.serif.com/" style="fill-rule:evenodd;clip-rule:evenodd;stroke-linecap:round;stroke-linejoin:round;"><path d="M2862.43,61.91c0,-34.169 -27.741,-61.91 -61.91,-61.91l-2738.61,0c-34.169,0 -61.91,27.741 -61.91,61.91l-0,1477.2c-0,34.169 27.741,61.91 61.91,61.91l2738.61,-0c34.169,-0 61.91,-27.741 61.91,-61.91l0,-1477.2Z" style="fill:#b1b1b1;fill-opacity:0.18;"/><g><path d="M1140.09,1289.25l552.774,-0" style="fill:none;fill-rule:nonzero;stroke:#b1b1b1;stroke-width:31.52px;"/><path d="M1416.48,1289.25c272.919,-0 497.496,-224.578 497.496,-497.497l-994.992,0c-0,272.919 224.578,497.497 497.496,497.497Z" style="fill:none;fill-rule:nonzero;stroke:#b1b1b1;stroke-width:31.52px;"/><path d="M1382.21,791.75c-0.412,0.004 -0.824,0.006 -1.236,0.006c-72.779,0 -132.666,-59.887 -132.666,-132.666c0,-64.931 47.669,-120.796 111.791,-131.013c-2.168,-9.596 -3.263,-19.403 -3.263,-29.241c0,-72.779 59.888,-132.666 132.666,-132.666c16.232,-0 32.328,2.979 47.485,8.789c24.316,-38.279 66.633,-61.531 111.982,-61.531c28.799,-0 56.829,9.377 79.83,26.706c23.372,-18.369 52.254,-28.361 81.981,-28.361c72.778,0 132.665,59.887 132.665,132.666c0,29.727 -9.991,58.608 -28.361,81.98c17.311,22.994 26.678,51.01 26.678,79.792c-0,55.715 -35.099,105.759 -87.483,124.734c5.043,19.896 5.61,40.665 1.658,60.805" style="fill:none;fill-rule:nonzero;stroke:#b1b1b1;stroke-width:31.52px;"/><path d="M1471.76,791.75l221.109,-221.109" style="fill:none;fill-rule:nonzero;stroke:#b1b1b1;stroke-width:31.52px;"/><path d="M1355.68,529.183c-41.674,-44.427 -99.946,-69.662 -160.86,-69.662c-120.994,0 -220.557,99.563 -220.557,220.557c0,0.373 0.001,0.745 0.003,1.118c0,40.352 11.056,77.941 29.85,110.554" style="fill:none;fill-rule:nonzero;stroke:#b1b1b1;stroke-width:31.52px;"/></g></svg>