<?xml version="1.0" encoding="UTF-8" standalone="no"?><!DOCTYPE svg PUBLIC "-//W3C//DTD SVG 1.1//EN" "http://www.w3.org/Graphics/SVG/1.1/DTD/svg11.dtd"><svg width="100%" height="100%" viewBox="0 0 2185 2185" version="1.1" xmlns="http://www.w3.org/2000/svg" xmlns:xlink="http://www.w3.org/1999/xlink" xml:space="preserve" xmlns:serif="http://www.serif.com/" style="fill-rule:evenodd;clip-rule:evenodd;stroke-linecap:round;stroke-linejoin:round;"><circle cx="1092.09" cy="1092.09" r="1092.09" style="fill:#d7d7d7;"/><path d="M888.979,1433.07l385.662,-0" style="fill:none;fill-rule:nonzero;stroke:#b1b1b1;stroke-width:21.99px;"/><path d="M1081.81,1433.07c190.411,-0 347.096,-156.685 347.096,-347.096l-694.192,-0c0,190.411 156.685,347.096 347.096,347.096Z" style="fill:none;fill-rule:nonzero;stroke:#b1b1b1;stroke-width:21.99px;"/><path d="M1057.9,1085.98c-0.287,0.003 -0.575,0.004 -0.863,0.004c-50.776,0 -92.558,-41.783 -92.558,-92.559c-0,-45.301 33.258,-84.278 77.995,-91.406c-1.513,-6.695 -2.277,-13.537 -2.277,-20.401c0,-50.777 41.783,-92.559 92.559,-92.559c11.325,-0 22.555,2.078 33.129,6.132c16.965,-26.707 46.49,-42.929 78.129,-42.929c20.092,-0 39.648,6.542 55.696,18.632c16.306,-12.816 36.456,-19.787 57.196,-19.787c50.777,0 92.559,41.783 92.559,92.559c0,20.74 -6.971,40.89 -19.787,57.196c12.078,16.043 18.613,35.589 18.613,55.67c-0,38.872 -24.488,73.786 -61.036,87.025c3.519,13.881 3.914,28.371 1.157,42.423" style="fill:none;fill-rule:nonzero;stroke:#b1b1b1;stroke-width:21.99px;"/><path d="M1120.38,1085.98l154.265,-154.265" style="fill:none;fill-rule:nonzero;stroke:#b1b1b1;stroke-width:21.99px;"/><path d="M1039.39,902.789c-29.075,-30.996 -69.731,-48.602 -112.229,-48.602c-84.416,-0 -153.879,69.463 -153.879,153.879c-0,0.26 0,0.52 0.002,0.78c-0,28.153 7.713,54.378 20.825,77.132" style="fill:none;fill-rule:nonzero;stroke:#b1b1b1;stroke-width:21.99px;"/></svg>